<?xml version="1.0" encoding="UTF-8"?>
<svg width="120mm" height="52mm" version="1.1" viewBox="0 0 120 52" xmlns="http://www.w3.org/2000/svg" xmlns:cc="http://creativecommons.org/ns#" xmlns:rdf="http://www.w3.org/1999/02/22-rdf-syntax-ns#" xmlns:xlink="http://www.w3.org/1999/xlink"><defs><marker id="e" overflow="visible" orient="auto"><path transform="scale(.4)" d="m5.77 0-8.65 5v-10z" fill="context-stroke" fill-rule="evenodd" stroke="context-stroke" stroke-width="1pt"/></marker></defs><g transform="translate(-14.925)" font-family="sans-serif" font-size="3.5px" stroke-width=".26458"><text x="74.989258" y="5.8408122" style="line-height:1.25" xml:space="preserve"><tspan x="74.989258" y="5.8408122" font-size="3.5px" stroke-width=".26458" text-align="center" text-anchor="middle">Reference Model</tspan></text><text x="74.902344" y="18.540812" style="line-height:1.25" xml:space="preserve"><tspan x="74.902344" y="18.540812" font-size="3.5px" stroke-width=".26458" text-align="center" text-anchor="middle">Reference Architecture</tspan></text><text x="74.985352" y="31.232269" style="line-height:1.25" xml:space="preserve"><tspan x="74.985352" y="31.232269" font-size="3.5px" stroke-width=".26458" text-align="center" text-anchor="middle">Concrete Architecture</tspan></text><text x="75.060547" y="43.93227" style="line-height:1.25" xml:space="preserve"><tspan x="75.060547" y="43.93227" font-size="3.5px" stroke-width=".26458" text-align="center" text-anchor="middle">Implementation</tspan></text></g><rect id="a" x="33.075" y=".52917" width="54" height="8" rx="1" fill="none" opacity=".91318" stroke="#000" stroke-linejoin="round" stroke-width=".333"/><use transform="translate(6.5034e-8 12.7)" width="100%" height="100%" xlink:href="#a"/><use transform="translate(6.5034e-8 25.4)" width="100%" height="100%" xlink:href="#a"/><use transform="translate(6.5034e-8 38.1)" width="100%" height="100%" xlink:href="#a"/><path id="d" d="m32.942 17.354c-10 1e-6 -9.867-6.354-2.867-10.354" fill="none" marker-end="url(#e)" stroke="#666" stroke-width=".667"/><use transform="translate(6.5034e-8 12.7)" width="100%" height="100%" xlink:href="#d"/><use transform="translate(6.5034e-8 25.4)" width="100%" height="100%" xlink:href="#d"/><g font-family="sans-serif" font-size="2.9px" stroke-width=".26458"><text x="22.645988" y="26.071365" style="line-height:1.25" xml:space="preserve"><tspan x="22.645988" y="26.071365" font-size="2.9px" stroke-width=".26458" text-align="end" text-anchor="end">contextualizes</tspan></text><text x="22.645988" y="13.774876" style="line-height:1.25" xml:space="preserve"><tspan x="22.645988" y="13.774876" font-size="2.9px" stroke-width=".26458" text-align="end" text-anchor="end">concretizes</tspan></text><text x="22.645988" y="38.771366" style="line-height:1.25" xml:space="preserve"><tspan x="22.645988" y="38.771366" font-size="2.9px" stroke-width=".26458" text-align="end" text-anchor="end">realizes</tspan></text><text id="c" x="36.446358" y="13.774876" font-family="sans-serif" font-size="2.9px" stroke-width=".26458" style="line-height:1.25" xml:space="preserve"><tspan x="31.641819" y="13.774876" font-size="2.9px" stroke-width=".26458" text-align="end" text-anchor="end">1..</tspan></text><use transform="translate(6.5034e-8 12.611)" width="100%" height="100%" xlink:href="#c"/><use transform="translate(6.5034e-8 25.311)" width="100%" height="100%" xlink:href="#c"/></g><metadata><rdf:RDF><cc:Work rdf:about=""><cc:license rdf:resource="http://www.eclipse.org/legal/epl-2.0"/></cc:Work></rdf:RDF></metadata><g id="b" transform="translate(-29.742)"><text x="139.36133" y="10.196365" font-family="sans-serif" font-size="2.9px" stroke-width=".26458" style="line-height:1.25" xml:space="preserve"><tspan x="139.36133" y="10.196365" font-size="2.9px" stroke-width=".26458" text-align="end" text-anchor="end">extends</tspan></text><path d="m116.95 5.7335c0.0899 0 3.4268 0.00135 3.4268 0.00135 10.596 0 2.6586 13.111-2.3777 4.3881" fill="none" marker-end="url(#e)" stroke="#666" stroke-width=".667"/><text x="128.99091" y="10.196365" style="line-height:1.25" xml:space="preserve"><tspan x="124.18637" y="10.196365" font-size="2.9px" stroke-width=".26458" text-align="end" text-anchor="end">0..</tspan></text></g><use transform="translate(6.5034e-8 12.7)" width="100%" height="100%" xlink:href="#b"/><use transform="translate(6.5034e-8 25.4)" width="100%" height="100%" xlink:href="#b"/><use transform="translate(6.5034e-8 38.1)" width="100%" height="100%" xlink:href="#b"/></svg>
